<svg xmlns="http://www.w3.org/2000/svg" version="1.1" xmlns:xlink="http://www.w3.org/1999/xlink" xmlns:svgjs="http://svgjs.com/svgjs" width="1440" height="560" preserveAspectRatio="none" viewBox="0 0 1440 560"><g mask="url(&quot;#SvgjsMask1468&quot;)" fill="none"><rect width="1440" height="560" x="0" y="0" fill="#0e2a47"></rect><circle r="70.20863922680296" cx="1213.01" cy="419.35" fill="#e73635"></circle><path d="M867.88 150.48 L753.5 99.53L727.2570063589181 208.43799364108196z" stroke="#d3b714" stroke-width="2.21"></path><circle r="46.666666666666664" cx="1000.7" cy="302.89" fill="#037b0b"></circle><path d="M1395.15 260.93 L1329.5 269.21L1338.2441752143814 240.98917521438128z" fill="#e73635"></path><path d="M268.78 334.69a5.6 5.6 0 1 0-7.41-8.4 5.6 5.6 0 1 0 7.41 8.4zM258.2 322.69a5.6 5.6 0 1 0-7.42-8.39 5.6 5.6 0 1 0 7.42 8.39zM247.61 310.7a5.6 5.6 0 1 0-7.42-8.4 5.6 5.6 0 1 0 7.42 8.4zM237.02 298.7a5.6 5.6 0 1 0-7.42-8.39 5.6 5.6 0 1 0 7.42 8.39zM301.96 348.09a5.6 5.6 0 1 0-7.41-8.4 5.6 5.6 0 1 0 7.41 8.4zM291.37 336.09a5.6 5.6 0 1 0-7.41-8.39 5.6 5.6 0 1 0 7.41 8.39zM280.78 324.1a5.6 5.6 0 1 0-7.41-8.4 5.6 5.6 0 1 0 7.41 8.4zM270.19 312.1a5.6 5.6 0 1 0-7.41-8.39 5.6 5.6 0 1 0 7.41 8.39z" stroke="#d3b714" stroke-width="1.86" stroke-dasharray="4, 4"></path><rect width="68" height="68" clip-path="url(&quot;#SvgjsClipPath1469&quot;)" x="1391.96" y="295.68" fill="url(#SvgjsPattern1470)" transform="rotate(170.06, 1425.96, 329.68)"></rect><rect width="84.6" height="84.6" clip-path="url(&quot;#SvgjsClipPath1471&quot;)" x="1289.84" y="245.36" fill="url(#SvgjsPattern1472)" transform="rotate(97.49, 1332.14, 287.66)"></rect><path d="M1352.88 293.83L1360.92 283.86 1372.41 289.51 1380.45 279.54 1391.94 285.19 1399.97 275.22 1411.47 280.87M1354.61 301.65L1362.65 291.67 1374.14 297.32 1382.18 287.35 1393.67 293 1401.7 283.03 1413.2 288.68M1356.34 309.46L1364.38 299.48 1375.87 305.13 1383.9 295.16 1395.4 300.81 1403.43 290.84 1414.92 296.49" stroke="#d3b714" stroke-width="1.38" stroke-dasharray="4, 4"></path><circle r="46.666666666666664" cx="1069.95" cy="521.98" stroke="#d3b714" stroke-width="1.19" stroke-dasharray="4, 4"></circle><rect width="60" height="60" clip-path="url(&quot;#SvgjsClipPath1473&quot;)" x="1156.87" y="260.95" fill="url(#SvgjsPattern1474)" transform="rotate(359.06, 1186.87, 290.95)"></rect><rect width="123.80000000000001" height="123.80000000000001" clip-path="url(&quot;#SvgjsClipPath1475&quot;)" x="-4.1" y="62.19" fill="url(#SvgjsPattern1476)" transform="rotate(123.39, 57.8, 124.09)"></rect><path d="M1480.3500000000001 272.99 L1372.8400000000001 204.07L1347.5972513471645 317.5277486528357z" fill="#d3b714"></path></g><defs><mask id="SvgjsMask1468"><rect width="1440" height="560" fill="#ffffff"></rect></mask><pattern x="0" y="0" width="6.8" height="6.8" patternUnits="userSpaceOnUse" id="SvgjsPattern1470"><path d="M3.4 1L3.4 5.8M1 3.4L5.8 3.4" stroke="#e73635" fill="none" stroke-width="1.61"></path></pattern><clipPath id="SvgjsClipPath1469"><circle r="17" cx="1425.96" cy="329.68"></circle></clipPath><pattern x="0" y="0" width="8.46" height="8.46" patternUnits="userSpaceOnUse" id="SvgjsPattern1472"><path d="M4.23 1L4.23 7.460000000000001M1 4.23L7.460000000000001 4.23" stroke="#037b0b" fill="none" stroke-width="1"></path></pattern><clipPath id="SvgjsClipPath1471"><circle r="21.15" cx="1332.14" cy="287.66"></circle></clipPath><pattern x="0" y="0" width="6" height="6" patternUnits="userSpaceOnUse" id="SvgjsPattern1474"><path d="M0 6L3 0L6 6" stroke="#d3b714" fill="none"></path></pattern><clipPath id="SvgjsClipPath1473"><circle r="15" cx="1186.87" cy="290.95"></circle></clipPath><pattern x="0" y="0" width="12.38" height="12.38" patternUnits="userSpaceOnUse" id="SvgjsPattern1476"><path d="M0 12.38L6.19 0L12.38 12.38" stroke="#d3b714" fill="none"></path></pattern><clipPath id="SvgjsClipPath1475"><circle r="30.950000000000003" cx="57.8" cy="124.09"></circle></clipPath></defs></svg>