<svg xmlns="http://www.w3.org/2000/svg" version="1.1" xmlns:xlink="http://www.w3.org/1999/xlink" xmlns:svgjs="http://svgjs.com/svgjs" width="1440" height="560" preserveAspectRatio="none" viewBox="0 0 1440 560"><g mask="url(&quot;#SvgjsMask1518&quot;)" fill="none"><rect width="1440" height="560" x="0" y="0" fill="#0e2a47"></rect><path d="M836.56 251.94 L879.47 263.98L875.2590840484081 240.71591595159194z" fill="#d3b714"></path><rect width="168" height="168" clip-path="url(&quot;#SvgjsClipPath1519&quot;)" x="588" y="-45.07" fill="url(#SvgjsPattern1520)" transform="rotate(4.88, 672, 38.93)"></rect><circle r="46.666666666666664" cx="1063.98" cy="279.76" stroke="#d3b714" stroke-width="1.32" stroke-dasharray="3, 3"></circle><path d="M1035.55 525.92L1048.05 528.69 1048.09 541.49 1060.6 544.26 1060.64 557.07 1073.14 559.84 1073.18 572.64" stroke="#d3b714" stroke-width="2.82"></path><circle r="68.5536294108409" cx="1005.18" cy="95.28" fill="#d3b714"></circle><rect width="126.2" height="126.2" clip-path="url(&quot;#SvgjsClipPath1521&quot;)" x="24.81" y="18.13" fill="url(#SvgjsPattern1522)" transform="rotate(75.63, 87.91, 81.23)"></rect><path d="M1155.6399999999999 149.01999999999998 L1158.1899999999998 140.54L1153.185537723768 141.05053772376797z" stroke="#d3b714" stroke-width="1.78" stroke-dasharray="4, 4"></path><circle r="46.666666666666664" cx="637.12" cy="18.02" fill="#d3b714"></circle><rect width="137.52" height="137.52" clip-path="url(&quot;#SvgjsClipPath1523&quot;)" x="1178.31" y="308.28" fill="url(#SvgjsPattern1524)" transform="rotate(146.3, 1247.07, 377.04)"></rect><rect width="185.04" height="185.04" clip-path="url(&quot;#SvgjsClipPath1525&quot;)" x="927.74" y="150.46" fill="url(#SvgjsPattern1526)" transform="rotate(43.97, 1020.26, 242.98)"></rect><rect width="136.8" height="136.8" clip-path="url(&quot;#SvgjsClipPath1527&quot;)" x="549.38" y="368.97" fill="url(#SvgjsPattern1528)" transform="rotate(258.18, 617.78, 437.37)"></rect><path d="M389.15 456.6L376.36 457.34 372.83 445.04 360.04 445.78 356.51 433.47 343.72 434.22 340.19 421.91M393.77 450.07L380.99 450.82 377.45 438.51 364.67 439.25 361.13 426.95 348.35 427.69 344.81 415.38M398.4 443.54L385.61 444.29 382.08 431.98 369.29 432.73 365.76 420.42 352.97 421.16 349.44 408.86" stroke="#d3b714" stroke-width="1"></path></g><defs><mask id="SvgjsMask1518"><rect width="1440" height="560" fill="#ffffff"></rect></mask><pattern x="0" y="0" width="6" height="6" patternUnits="userSpaceOnUse" id="SvgjsPattern1520"><path d="M0 6L3 0L6 6" stroke="#d3b714" fill="none"></path></pattern><clipPath id="SvgjsClipPath1519"><circle r="42" cx="672" cy="38.93"></circle></clipPath><pattern x="0" y="0" width="12.62" height="12.62" patternUnits="userSpaceOnUse" id="SvgjsPattern1522"><path d="M6.31 1L6.31 11.62M1 6.31L11.62 6.31" stroke="#d3b714" fill="none" stroke-width="1.63"></path></pattern><clipPath id="SvgjsClipPath1521"><circle r="31.55" cx="87.91" cy="81.23"></circle></clipPath><pattern x="0" y="0" width="11.46" height="11.46" patternUnits="userSpaceOnUse" id="SvgjsPattern1524"><path d="M0 11.46L5.73 0L11.46 11.46" stroke="#d3b714" fill="none"></path></pattern><clipPath id="SvgjsClipPath1523"><circle r="34.38" cx="1247.07" cy="377.04"></circle></clipPath><pattern x="0" y="0" width="185.04" height="10.28" patternUnits="userSpaceOnUse" id="SvgjsPattern1526"><rect width="185.04" height="5.14" x="0" y="0" fill="#d3b714"></rect><rect width="185.04" height="5.14" x="0" y="5.14" fill="rgba(0, 0, 0, 0)"></rect></pattern><clipPath id="SvgjsClipPath1525"><circle r="46.26" cx="1020.26" cy="242.98"></circle></clipPath><pattern x="0" y="0" width="13.68" height="13.68" patternUnits="userSpaceOnUse" id="SvgjsPattern1528"><path d="M6.84 1L6.84 12.68M1 6.84L12.68 6.84" stroke="#d3b714" fill="none" stroke-width="1.51"></path></pattern><clipPath id="SvgjsClipPath1527"><circle r="34.2" cx="617.78" cy="437.37"></circle></clipPath></defs></svg>